<svg width="1175" height="432" viewBox="0 0 1175 432" fill="none" xmlns="http://www.w3.org/2000/svg">
<path d="M662.06 19.6916C648.636 21.1939 625.515 27.5961 603.042 60.2313C593.206 74.515 582.814 95.5938 572.099 123.583C565.156 142.559 556.315 173.807 545.576 217.329C528.796 286.528 516.021 332.476 507.296 355.15C501.047 371.352 493.456 384.78 484.522 395.412C516.438 388.247 541.896 384.642 560.851 384.642C572.677 384.642 583.625 385.404 593.669 386.907C603.714 388.409 621.234 392.176 646.229 398.186C667.869 403.525 683.051 406.183 691.753 406.183C700.455 406.183 707.422 403.455 713.347 398.001C719.248 392.546 722.211 386.329 722.211 379.349C722.211 374.934 720.637 368.763 717.536 360.882C714.643 353.439 713.185 347.523 713.185 343.108C713.185 336.821 714.967 331.898 718.531 328.293C722.095 324.687 726.793 322.884 732.602 322.884C739.291 322.884 744.984 325.958 749.683 332.083C754.358 338.208 756.719 346.621 756.719 357.253C756.719 377.384 748.688 394.742 732.602 409.326C716.541 423.91 694.762 431.191 667.313 431.191C653.705 431.191 636.185 430.151 614.753 428.07C542.428 421.368 495.122 417.993 472.788 417.993C439.97 417.993 410.947 419.958 385.743 423.887L389.77 405.143C413.215 400.52 428.884 395.204 436.799 389.172C444.714 383.162 451.866 372.461 458.23 357.068C464.595 341.675 473.251 309.918 484.175 261.774C498.686 198.122 511.855 152.312 523.682 124.3C541.757 82.1884 564.253 50.94 591.146 30.5777C618.086 10.1923 645.257 -0.000461221 672.706 -0.000461221C672.706 -0.000461221 714.666 -1.38722 723.576 29.6994C730.658 54.4069 683.699 75.7631 656.181 85.9789L654.63 82.7431C666.874 75.4626 682.496 64.9694 691.059 54.638C707.514 34.738 699.854 15.4157 662.06 19.6685V19.6916Z" fill="#72BF6B"/>
<path d="M768.823 238.917C755.399 225.303 755.168 202.514 759.287 179.032C766.231 139.578 787.13 103.615 817.124 70.9334C852.604 32.289 904.285 12.9667 972.143 12.9667H1086.98C1126.56 12.9667 1155.86 10.3319 1174.84 5.03906L1175 5.20085C1166.11 43.5911 1160.44 70.9103 1157.99 87.1586L1157.85 87.2741L1148.29 87.3435L1148.22 87.251C1149.98 75.5098 1149.17 65.71 1147.37 58.6375C1145.07 49.6697 1139.15 43.8222 1131.67 40.9331C1124.2 38.044 1095.99 36.5879 1047.04 36.5879L998.203 36.9346L998.087 37.0271L961.335 189.872L961.45 190.033H1030.49C1086.15 189.178 1081.43 183.747 1092.21 160.01L1092.33 159.941L1100.57 159.825L1100.68 159.987C1093.56 187.93 1087.21 218.624 1081.66 252.068L1081.54 252.16L1074.76 251.698L1074.62 251.559C1075.74 240.743 1075.8 217.26 1052.82 213.631C1046.76 212.684 1037.41 211.898 1024.68 211.898H956.104C956.104 211.898 956.035 211.967 955.988 211.99C936.247 290.389 915.718 351.869 894.425 396.453L894.587 396.615C915.232 389.889 933.585 386.515 949.601 386.515C976.401 386.515 1009.24 390.906 1048.1 399.712C1068.65 404.566 1082.61 406.993 1089.99 406.993C1099.83 406.993 1107.74 404.45 1113.78 399.388C1119.8 394.327 1122.83 388.572 1122.83 382.1C1122.83 378.402 1121.31 372.416 1118.27 364.118C1116.4 358.363 1115.47 352.932 1115.47 347.87C1115.47 342.808 1117.53 337.839 1121.68 333.702C1125.8 329.565 1130.77 327.485 1136.58 327.485C1143.5 327.485 1149.24 330.258 1153.82 335.828C1158.41 341.376 1160.7 348.795 1160.7 358.04C1160.7 377.709 1152.37 394.951 1135.72 409.766C1119.08 424.581 1087.89 431.977 1060.62 431.977C1046.32 431.977 1037.48 430.706 1015.61 428.164C967.583 422.617 930.947 419.843 905.72 419.843C872.693 419.843 834.135 422.617 789.976 428.141L789.838 427.979L795.068 408.842L795.161 408.749C821.614 401.191 837.19 395.644 841.888 392.085C846.61 388.525 850.521 383.325 853.669 376.438C864.361 354.48 878.225 310.428 895.282 244.302C912.316 178.223 929.627 108.445 947.217 34.9932L947.078 34.8314C920.323 34.8545 895.004 41.4416 871.166 54.5928C847.258 67.767 829.159 85.3096 815.18 106.065C770.443 172.537 783.751 262.862 840.407 176.327L842.861 177.76C826.937 210.326 794.721 265.173 768.846 238.894L768.823 238.917Z" fill="#72BF6B"/>
<path d="M18.5409 367.746C10.857 367.468 4.28415 359.91 1.7846 352.746C-2.33503 340.958 3.3121 327.044 9.42212 318.4C22.0587 300.58 44.277 295.403 59.39 298.292C78.2524 301.898 81.2842 303.862 107.391 334.972C133.081 365.573 146.504 394.903 196.634 405.928C258.66 419.541 319.204 376.459 307.123 312.506C295.274 249.732 238.455 210.417 212.65 176.927C196.981 156.565 167.727 126.218 175.989 79.0677C180.503 53.3664 196.865 31.8715 219.593 17.6803C250.629 -1.68813 308.119 -12.5973 363.433 38.9209C371.464 46.3863 380.976 55.4003 390.534 61.0629C403.426 68.7364 416.294 75.023 431.893 73.0353C439.9 72.0184 448.88 69.1062 453.879 66.1246C470.659 56.0243 477.417 35.8007 467.488 19.5987C463.924 13.7974 460.267 8.75882 452.051 5.15324L452.306 2.00991C452.306 2.00991 470.52 0.207116 485.587 27.6188C520.812 91.7335 413.84 148.383 353.666 71.325C352.023 69.2217 350.241 67.2571 348.644 65.1539C340.914 54.8918 311.336 18.9053 276.758 19.3213C235.053 19.8298 201.008 59.3757 225.518 103.498C236.604 123.467 281.109 169.346 308.558 199.716C331.679 225.279 359.336 266.766 359.984 314.517C360.331 340.08 342.997 408.493 264.122 427.076C199.157 442.377 149.397 418.571 129.007 403.64C97.2767 380.411 86.4685 358.454 66.4721 352.722C61.7738 351.382 56.3581 352.607 52.4005 355.011C33.9316 366.197 31.1543 368.231 18.5177 367.792L18.5409 367.746Z" fill="#72BF6B"/>
</svg>
